<?xml version="1.0" standalone="no"?>
<!DOCTYPE svg PUBLIC "-//W3C//DTD SVG 1.1//EN" "http://www.w3.org/Graphics/SVG/1.1/DTD/svg11.dtd">
<svg width="164" height="164" version="1.1" xmlns="http://www.w3.org/2000/svg">
  <title>10 by 10 orthogonal maze</title>
  <desc>10 by 10 orthogonal maze generated by The Maze Generator Website (http://www.mazegenerator.net/).</desc>
  <g fill="none" stroke="#000000" stroke-width="2" stroke-linecap="square">
    <line x1="2" y1="2" x2="66" y2="2" />
    <line x1="82" y1="2" x2="162" y2="2" />
    <line x1="18" y1="18" x2="50" y2="18" />
    <line x1="66" y1="18" x2="82" y2="18" />
    <line x1="50" y1="34" x2="98" y2="34" />
    <line x1="130" y1="34" x2="146" y2="34" />
    <line x1="34" y1="50" x2="50" y2="50" />
    <line x1="98" y1="50" x2="114" y2="50" />
    <line x1="146" y1="50" x2="162" y2="50" />
    <line x1="18" y1="66" x2="34" y2="66" />
    <line x1="50" y1="66" x2="114" y2="66" />
    <line x1="130" y1="66" x2="146" y2="66" />
    <line x1="34" y1="82" x2="50" y2="82" />
    <line x1="98" y1="82" x2="130" y2="82" />
    <line x1="146" y1="82" x2="162" y2="82" />
    <line x1="18" y1="98" x2="66" y2="98" />
    <line x1="82" y1="98" x2="114" y2="98" />
    <line x1="34" y1="114" x2="50" y2="114" />
    <line x1="66" y1="114" x2="98" y2="114" />
    <line x1="114" y1="114" x2="130" y2="114" />
    <line x1="18" y1="130" x2="66" y2="130" />
    <line x1="98" y1="130" x2="114" y2="130" />
    <line x1="18" y1="146" x2="34" y2="146" />
    <line x1="66" y1="146" x2="82" y2="146" />
    <line x1="130" y1="146" x2="162" y2="146" />
    <line x1="2" y1="162" x2="82" y2="162" />
    <line x1="98" y1="162" x2="162" y2="162" />
    <line x1="2" y1="2" x2="2" y2="162" />
    <line x1="18" y1="18" x2="18" y2="114" />
    <line x1="18" y1="130" x2="18" y2="146" />
    <line x1="34" y1="34" x2="34" y2="50" />
    <line x1="34" y1="66" x2="34" y2="82" />
    <line x1="34" y1="114" x2="34" y2="130" />
    <line x1="50" y1="18" x2="50" y2="34" />
    <line x1="50" y1="50" x2="50" y2="66" />
    <line x1="50" y1="130" x2="50" y2="162" />
    <line x1="66" y1="34" x2="66" y2="50" />
    <line x1="66" y1="66" x2="66" y2="98" />
    <line x1="82" y1="2" x2="82" y2="18" />
    <line x1="82" y1="50" x2="82" y2="66" />
    <line x1="82" y1="82" x2="82" y2="98" />
    <line x1="82" y1="114" x2="82" y2="162" />
    <line x1="98" y1="18" x2="98" y2="50" />
    <line x1="98" y1="66" x2="98" y2="82" />
    <line x1="98" y1="98" x2="98" y2="114" />
    <line x1="98" y1="130" x2="98" y2="162" />
    <line x1="114" y1="18" x2="114" y2="50" />
    <line x1="114" y1="114" x2="114" y2="146" />
    <line x1="130" y1="2" x2="130" y2="18" />
    <line x1="130" y1="34" x2="130" y2="114" />
    <line x1="130" y1="130" x2="130" y2="146" />
    <line x1="146" y1="18" x2="146" y2="34" />
    <line x1="146" y1="82" x2="146" y2="130" />
    <line x1="162" y1="2" x2="162" y2="162" />
  </g>
  <polyline fill="none" stroke="#ff0000" stroke-width="2" stroke-linecap="square" stroke-linejoin="round" points="74,2 74,10 10,10 10,122 26,122 26,106 74,106 74,74 90,74 90,90 122,90 122,106 106,106 106,122 90,122 90,162" />
</svg>
